<svg xmlns="http://www.w3.org/2000/svg" width="226.77" height="51.023" viewBox="0 88.385 226.77 51.023"><path fill="#ffffff" d="M68.963 97.648v39.224H98.88v-6.205H76.72V120.03h19.274v-6.428H76.497v-9.748H98.88v-6.206M108.284 97.648v39.224h7.093v-16.84h18.393v16.84h7.086V97.648h-7.31v15.954h-18.393V97.648M150.52 97.648h7.312v32.355h20.392v6.87H150.52M207.29 97.648h-6.428l-17.506 39.22h7.31l4.207-9.526h17.947l3.99 9.525h7.533l-17.052-39.22zm-9.972 23.27l6.646-15.437 6.652 15.438h-13.298z"/><path fill="#0690CF" d="M30.6 89.22v7.413L6.282 108.59v5.42L30.6 102.13v7.335l-24.318 11.92v7.016l24.76-12.193v7.29L1.02 138.29v-34.64"/><path fill="#92D400" d="M30.836 89.22v7.17l29.144 14.434v-7.418M30.836 102.09l29.144 14.315v7.412l-10.725-5.42v6.66l10.725 5.298v7.374l-28.665-14.233v-7.214l11.122 5.503v-6.696l-11.6-5.784"/></svg>
